<?xml version="1.0" encoding="utf-8"?>
<!-- Generator: Adobe Illustrator 18.1.1, SVG Export Plug-In . SVG Version: 6.00 Build 0)  -->
<svg version="1.1" id="Layer_1" xmlns="http://www.w3.org/2000/svg" xmlns:xlink="http://www.w3.org/1999/xlink" x="0px" y="0px"
	 viewBox="547 257 100 100" enable-background="new 547 257 100 100" xml:space="preserve">
<path fill="#F8F8FF" d="M634.3,270.7h-12.1v-5.6c0-1.5-1.2-2.8-2.8-2.8c-1.5,0-2.8,1.2-2.8,2.8v5.6h-16.8v-5.6
	c0-1.5-1.3-2.8-2.8-2.8s-2.8,1.2-2.8,2.8v5.6h-16.8v-5.6c0-1.5-1.3-2.8-2.8-2.8s-2.8,1.2-2.8,2.8v5.6h-12.1c-4.1,0-7.5,3.3-7.5,7.5
	v66.2c0,4.1,3.3,7.5,7.5,7.5h74.6c4.1,0,7.5-3.3,7.5-7.5v-66.2C641.7,274,638.4,270.7,634.3,270.7z M636.1,344.3
	c0,1-0.8,1.9-1.9,1.9h-74.6c-1,0-1.9-0.8-1.9-1.9v-66.2c0-1,0.8-1.9,1.9-1.9h12.1v5.6c0,1.5,1.3,2.8,2.8,2.8s2.8-1.2,2.8-2.8v-5.6
	h16.8v5.6c0,1.5,1.3,2.8,2.8,2.8s2.8-1.2,2.8-2.8v-5.6h16.8v5.6c0,1.5,1.2,2.8,2.8,2.8c1.5,0,2.8-1.2,2.8-2.8v-5.6h12.1
	c1,0,1.9,0.8,1.9,1.9V344.3z M571.8,295.8H583v8.4h-11.2V295.8z M571.8,309.8H583v8.4h-11.2V309.8z M571.8,323.8H583v8.4h-11.2
	V323.8z M591.4,323.8h11.2v8.4h-11.2V323.8z M591.4,309.8h11.2v8.4h-11.2V309.8z M591.4,295.8h11.2v8.4h-11.2V295.8z M611,323.8
	h11.2v8.4H611V323.8z M611,309.8h11.2v8.4H611V309.8z M611,295.8h11.2v8.4H611V295.8z"/>
</svg>
