<?xml version="1.0" encoding="utf-8"?>
<!-- Generator: Adobe Illustrator 18.1.1, SVG Export Plug-In . SVG Version: 6.00 Build 0)  -->
<svg version="1.1" id="Layer_1" xmlns="http://www.w3.org/2000/svg" xmlns:xlink="http://www.w3.org/1999/xlink" x="0px" y="0px"
	 viewBox="1287 257 60 100" enable-background="new 1287 257 60 100" xml:space="preserve">
<rect x="1291.8" y="259.4" fill="#E67053" stroke="#555154" stroke-width="0.995" stroke-linecap="round" stroke-linejoin="round" stroke-miterlimit="10" width="50.3" height="95.3"/>
<polygon fill="#E67053" stroke="#555154" stroke-width="0.9708" stroke-linecap="round" stroke-linejoin="round" stroke-miterlimit="10" points="
	1346.1,265.8 1287.9,265.8 1289.3,262.1 1344.7,262.1 "/>
<polygon fill="#E67053" stroke="#555154" stroke-width="0.9708" stroke-linecap="round" stroke-linejoin="round" stroke-miterlimit="10" points="
	1346.1,320.1 1287.9,320.1 1289.3,316.4 1344.7,316.4 "/>
<polygon fill="#E67053" stroke="#555154" stroke-width="0.9708" stroke-linecap="round" stroke-linejoin="round" stroke-miterlimit="10" points="
	1346.1,290.8 1287.9,290.8 1289.3,287 1344.7,287 "/>
<g>
	<path fill="#FFFFFF" stroke="#555154" stroke-width="0.9708" stroke-miterlimit="10" d="M1305.4,274.7c2.5,0,4.5,2.1,4.5,4.6v7.5
		l-9,0l0.1-7.5C1300.9,276.7,1302.9,274.7,1305.4,274.7L1305.4,274.7"/>
	<line fill="none" stroke="#555154" stroke-width="0.9708" stroke-miterlimit="10" x1="1305.4" y1="274.7" x2="1305.4" y2="287.2"/>
	<line fill="none" stroke="#555154" stroke-width="0.9708" stroke-miterlimit="10" x1="1300.8" y1="281.8" x2="1309.9" y2="281.8"/>
</g>
<path fill="#FFFFFF" stroke="#555154" stroke-width="0.9708" stroke-miterlimit="10" d="M1327.8,274.7c2.5,0,4.5,2.1,4.5,4.6v7.5
	l-9,0l0.1-7.5C1323.3,276.7,1325.3,274.7,1327.8,274.7L1327.8,274.7"/>
<line fill="none" stroke="#555154" stroke-width="0.9708" stroke-miterlimit="10" x1="1327.8" y1="274.7" x2="1327.8" y2="287.2"/>
<line fill="none" stroke="#555154" stroke-width="0.9708" stroke-miterlimit="10" x1="1323.2" y1="281.8" x2="1332.4" y2="281.8"/>
<polygon fill="none" stroke="#555154" stroke-width="0.9708" stroke-linecap="round" stroke-linejoin="round" stroke-miterlimit="10" points="
	1328.6,300.9 1303.6,300.9 1306.3,298.6 1325.9,298.6 "/>
<rect x="1306.7" y="300.9" fill="#FFFFFF" stroke="#555154" stroke-width="0.8517" stroke-linecap="round" stroke-linejoin="round" stroke-miterlimit="10" width="19.5" height="15.3"/>
<line fill="none" stroke="#555154" stroke-width="0.8517" stroke-linecap="round" stroke-linejoin="round" stroke-miterlimit="10" x1="1312.4" y1="301.2" x2="1312.4" y2="316.2"/>
<line fill="none" stroke="#555154" stroke-width="0.8517" stroke-linecap="round" stroke-linejoin="round" stroke-miterlimit="10" x1="1319.3" y1="301.2" x2="1319.3" y2="316"/>
<line fill="none" stroke="#555154" stroke-width="0.8517" stroke-linecap="round" stroke-linejoin="round" stroke-miterlimit="10" x1="1306.6" y1="308.3" x2="1325.7" y2="308.3"/>
<rect x="1301.2" y="336.1" fill="none" stroke="#555154" stroke-width="0.9708" stroke-linecap="round" stroke-linejoin="round" stroke-miterlimit="10" width="9.6" height="18.3"/>
<path fill="#FFFFFF" stroke="#555154" stroke-width="0.9102" stroke-linecap="round" stroke-linejoin="round" stroke-miterlimit="10" d="
	M1301.3,335.6c0-2.6,2.1-4.7,4.7-4.7c2.6,0,4.7,2.1,4.7,4.7"/>
<rect x="1303" y="338.2" fill="#E67053" stroke="#555154" stroke-width="0.995" stroke-linecap="round" stroke-linejoin="round" stroke-miterlimit="10" width="2.1" height="6"/>
<rect x="1306.9" y="338.1" fill="#E67053" stroke="#555154" stroke-width="0.995" stroke-linecap="round" stroke-linejoin="round" stroke-miterlimit="10" width="2.1" height="6"/>
<rect x="1302.9" y="346.3" fill="#E67053" stroke="#555154" stroke-width="0.995" stroke-linecap="round" stroke-linejoin="round" stroke-miterlimit="10" width="2.1" height="6"/>
<rect x="1306.8" y="346.3" fill="#E67053" stroke="#555154" stroke-width="0.995" stroke-linecap="round" stroke-linejoin="round" stroke-miterlimit="10" width="2.1" height="6"/>
<rect x="1323.5" y="336.2" fill="none" stroke="#555154" stroke-width="0.9708" stroke-linecap="round" stroke-linejoin="round" stroke-miterlimit="10" width="9.6" height="18.3"/>
<path fill="#FFFFFF" stroke="#555154" stroke-width="0.9102" stroke-linecap="round" stroke-linejoin="round" stroke-miterlimit="10" d="
	M1323.6,335.8c0-2.6,2.1-4.7,4.7-4.7c2.6,0,4.7,2.1,4.7,4.7"/>
<rect x="1325.3" y="338.3" fill="#E67053" stroke="#555154" stroke-width="0.995" stroke-linecap="round" stroke-linejoin="round" stroke-miterlimit="10" width="2.1" height="6"/>
<rect x="1329.2" y="338.3" fill="#E67053" stroke="#555154" stroke-width="0.995" stroke-linecap="round" stroke-linejoin="round" stroke-miterlimit="10" width="2.1" height="6"/>
<rect x="1325.3" y="346.5" fill="#E67053" stroke="#555154" stroke-width="0.995" stroke-linecap="round" stroke-linejoin="round" stroke-miterlimit="10" width="2.1" height="6"/>
<rect x="1329.1" y="346.5" fill="#E67053" stroke="#555154" stroke-width="0.995" stroke-linecap="round" stroke-linejoin="round" stroke-miterlimit="10" width="2.1" height="6"/>
</svg>
