<?xml version="1.0" encoding="utf-8"?>
<!-- Generator: Adobe Illustrator 18.1.1, SVG Export Plug-In . SVG Version: 6.00 Build 0)  -->
<svg version="1.1" id="Layer_1" xmlns="http://www.w3.org/2000/svg" xmlns:xlink="http://www.w3.org/1999/xlink" x="0px" y="0px"
	 viewBox="787 257 100 100" enable-background="new 787 257 100 100" xml:space="preserve">
<path fill="#717A8D" d="M873.2,275.3h-72.4c-6.7,0-12.1,5.4-12.1,12.1v39.2c0,6.7,5.4,12.1,12.1,12.1h72.4c6.7,0,12.1-5.4,12.1-12.1
	v-39.2C885.3,280.7,879.9,275.3,873.2,275.3z M794.8,291.2l21.1,15.8l-21.1,15.8C794.8,322.8,794.8,291.2,794.8,291.2z M879.2,326.6
	c0,3.3-2.7,6-6,6h-72.4c-3.3,0-6-2.7-6-6l23.6-17.7l13.2,9.9c1.6,1.2,3.5,1.8,5.4,1.8c1.9,0,3.8-0.6,5.4-1.8l13.2-9.9L879.2,326.6z
	 M879.2,322.8L858.1,307l21.1-15.8V322.8z M840.6,316.4c-1.1,0.8-2.3,1.2-3.6,1.2s-2.6-0.4-3.6-1.2l-38.6-29c0-3.3,2.7-6,6-6h72.4
	c3.3,0,6,2.7,6,6C879.2,287.4,840.6,316.4,840.6,316.4z"/>
</svg>
