<?xml version="1.0" encoding="utf-8"?>
<!-- Generator: Adobe Illustrator 18.1.1, SVG Export Plug-In . SVG Version: 6.00 Build 0)  -->
<svg version="1.1" id="Layer_1" xmlns="http://www.w3.org/2000/svg" xmlns:xlink="http://www.w3.org/1999/xlink" x="0px" y="0px"
	 viewBox="-173 257 100 100" enable-background="new -173 257 100 100" xml:space="preserve">
<path fill="#717A8D" d="M-123,324.4c8,0,14.5-6.5,14.5-14.5V275c0-8-6.5-14.5-14.5-14.5s-14.5,6.5-14.5,14.5v34.9
	C-137.5,317.9-131,324.4-123,324.4z M-102.7,301.2v8.7c0,11.2-9.1,20.3-20.3,20.3s-20.3-9.1-20.3-20.3v-8.7h-5.8v8.7
	c0,13.5,10.2,24.5,23.2,26v11.8h-11.6v5.8h29.1v-5.8h-11.6v-11.8c13.1-1.4,23.2-12.5,23.2-26v-8.7H-102.7z"/>
</svg>
