<?xml version="1.0" encoding="utf-8"?>
<!-- Generator: Adobe Illustrator 18.1.1, SVG Export Plug-In . SVG Version: 6.00 Build 0)  -->
<svg version="1.1" id="Layer_1" xmlns="http://www.w3.org/2000/svg" xmlns:xlink="http://www.w3.org/1999/xlink" x="0px" y="0px"
	 viewBox="1027 257 100 100" enable-background="new 1027 257 100 100" xml:space="preserve">
<path fill="#2180AC" d="M1077,335.1c3.1,0,5.6,2.5,5.6,5.6v5.6c0,3.1-2.5,5.6-5.6,5.6s-5.6-2.5-5.6-5.6v-5.6
	C1071.4,337.6,1073.9,335.1,1077,335.1z M1077,278.9c-3.1,0-5.6-2.5-5.6-5.6v-5.6c0-3.1,2.5-5.6,5.6-5.6s5.6,2.5,5.6,5.6v5.6
	C1082.6,276.4,1080.1,278.9,1077,278.9z M1116.4,301.4c3.1,0,5.6,2.5,5.6,5.6s-2.5,5.6-5.6,5.6h-5.6c-3.1,0-5.6-2.5-5.6-5.6
	s2.5-5.6,5.6-5.6H1116.4z M1048.9,307c0,3.1-2.5,5.6-5.6,5.6h-5.6c-3.1,0-5.6-2.5-5.6-5.6s2.5-5.6,5.6-5.6h5.6
	C1046.4,301.4,1048.9,303.9,1048.9,307z M1104.8,326.9l4,4c2.2,2.2,2.2,5.8,0,8c-2.2,2.2-5.8,2.2-8,0l-4-4c-2.2-2.2-2.2-5.8,0-8
	S1102.6,324.7,1104.8,326.9z M1049.2,287.1l-4-4c-2.2-2.2-2.2-5.8,0-8c2.2-2.2,5.8-2.2,8,0l4,4c2.2,2.2,2.2,5.8,0,8
	S1051.4,289.3,1049.2,287.1z M1104.8,287.1c-2.2,2.2-5.8,2.2-8,0s-2.2-5.8,0-8l4-4c2.2-2.2,5.8-2.2,8,0c2.2,2.2,2.2,5.8,0,8
	L1104.8,287.1z M1049.2,326.9c2.2-2.2,5.8-2.2,8,0s2.2,5.8,0,8l-4,4c-2.2,2.2-5.8,2.2-8,0c-2.2-2.2-2.2-5.8,0-8
	C1045.2,330.9,1049.2,326.9,1049.2,326.9z"/>
<path fill="#2180AC" d="M1077,284.5c-12.4,0-22.5,10.1-22.5,22.5s10.1,22.5,22.5,22.5s22.5-10.1,22.5-22.5S1089.4,284.5,1077,284.5z
	 M1077,321.1c-7.8,0-14.1-6.3-14.1-14.1s6.3-14.1,14.1-14.1s14.1,6.3,14.1,14.1S1084.8,321.1,1077,321.1z"/>
</svg>
