<?xml version="1.0" encoding="utf-8"?>
<!-- Generator: Adobe Illustrator 18.1.1, SVG Export Plug-In . SVG Version: 6.00 Build 0)  -->
<svg version="1.1" id="Layer_1" xmlns="http://www.w3.org/2000/svg" xmlns:xlink="http://www.w3.org/1999/xlink" x="0px" y="0px"
	 viewBox="1147 257 100 100" enable-background="new 1147 257 100 100" xml:space="preserve">
<path fill="#F8F8FF" d="M1233.3,283.2c-0.2-4.1-3.6-7.3-7.7-7.3h-7.8v-2.6c0-4.3-3.5-7.8-7.8-7.8H1184c-4.3,0-7.8,3.5-7.8,7.8v2.6
	h-7.8c-4.1,0-7.5,3.2-7.7,7.3h0v5.7c0,2.9,2.3,5.2,5.2,5.2l0,0v44.1c0,5.7,4.6,10.4,10.4,10.4h41.5c5.7,0,10.4-4.6,10.4-10.4V294
	c2.9,0,5.2-2.3,5.2-5.2L1233.3,283.2C1233.3,283.2,1233.3,283.2,1233.3,283.2z M1181.4,273.3c0-1.4,1.2-2.6,2.6-2.6h25.9
	c1.4,0,2.6,1.2,2.6,2.6v2.6h-31.1C1181.4,275.9,1181.4,273.3,1181.4,273.3z M1222.9,338.1c0,2.9-2.3,5.2-5.2,5.2h-41.5
	c-2.9,0-5.2-2.3-5.2-5.2V294h51.9V338.1z M1228.1,286.2v2.6h-62.2v-5.2c0-1.4,1.2-2.6,2.6-2.6h57.1c1.4,0,2.6,1.2,2.6,2.6V286.2z
	 M1178.8,338.1h5.2c1.4,0,2.6-1.2,2.6-2.6v-33.7c0-1.4-1.2-2.6-2.6-2.6h-5.2c-1.4,0-2.6,1.2-2.6,2.6v33.7
	C1176.2,337,1177.4,338.1,1178.8,338.1z M1178.8,301.8h5.2v33.7h-5.2C1178.8,335.5,1178.8,301.8,1178.8,301.8z M1194.4,338.1h5.2
	c1.4,0,2.6-1.2,2.6-2.6v-33.7c0-1.4-1.2-2.6-2.6-2.6h-5.2c-1.4,0-2.6,1.2-2.6,2.6v33.7C1191.8,337,1193,338.1,1194.4,338.1z
	 M1194.4,301.8h5.2v33.7h-5.2C1194.4,335.5,1194.4,301.8,1194.4,301.8z M1210,338.1h5.2c1.4,0,2.6-1.2,2.6-2.6v-33.7
	c0-1.4-1.2-2.6-2.6-2.6h-5.2c-1.4,0-2.6,1.2-2.6,2.6v33.7C1207.4,337,1208.5,338.1,1210,338.1z M1210,301.8h5.2v33.7h-5.2
	C1210,335.5,1210,301.8,1210,301.8z"/>
</svg>
